<?xml version="1.0" encoding="UTF-8"?>
<svg id="Calque_1" data-name="Calque 1" xmlns="http://www.w3.org/2000/svg" viewBox="0 0 1637.5 745.49">
  <defs>
    <style>
      .cls-1 {
        fill: #dde37d;
      }

      .cls-1, .cls-2 {
        stroke-width: 0px;
      }

      .cls-2 {
        fill: #2aa94b;
      }
    </style>
  </defs>
  <path class="cls-2" d="M62.11,497.58s48.03-1.14,68.62,22.87c20.59,24.02,117.8,125.8,187.56,124.66,69.76-1.14,171.55-29.74,343.1-297.35C832.94,80.15,1087.97,2.38,1170.32.09c82.34-2.29,422.01,37.74,465.47,205.86,11.44,45.75-37.74,30.88-48.03,29.74-10.29-1.14-165.83-64.04-241.31-61.76-75.48,2.29-281.34,14.87-473.47,250.46-133.81,161.26-368.26,290.49-428.87,303.07-60.61,12.58-205.86,44.6-340.81-27.45C-31.67,627.96,2.64,544.47,7.22,535.32c4.57-9.15,36.02-38.98,54.9-37.74Z"/>
  <path class="cls-1" d="M384.62,526.17s91.49-131.52,91.49-215.01-34.31-150.96-128.09-148.68c-93.78,2.29-118.94,62.9-116.65,89.21,2.29,26.3,14.87,56.04,29.74,57.18,14.87,1.14,32.02-17.15,32.02-41.17s22.87-43.46,45.75-43.46,72.05,13.72,73.19,77.77c1.14,64.04-41.17,114.37-146.39,114.37s-158.97-83.49-148.68-196.71c10.29-113.22,99.5-177.27,240.17-173.84,140.67,3.43,233.31,85.64,226.44,240.1-6.86,154.46-204.71,292.84-199,240.23Z"/>
  <path class="cls-1" d="M714,674.85c-.11-38.88,321.37-327.09,542.09-316.79,145.24-.25,162.4,105.22,164.69,131.52,2.29,26.3-6.86,110.93-121.23,105.22-73.19-4.57-80.06-61.76-98.35-68.62-18.3-6.86-83.49-1.27-114.37,11.37-30.88,12.64-195.57,65.25-324.8,137.3-48.14,21.73-48.03,0-48.03,0Z"/>
</svg>